<svg xmlns="http://www.w3.org/2000/svg" viewBox="0 0 301.3 334" enable-background="new 0 0 301.3 334"><g fill="#3D3D3D"><path d="M194.1 104.2h-5.8v55.4h5.8c3.9 0 5.5-2.3 5.5-7.5v-40.4c0-5.2-1.6-7.5-5.5-7.5zM82.4 45.4L80 53.5h4.5zM115.3 234.8h68.9v-42.6h-68.9v42.6zm38.9-29.2l3.1-3.1 11.9 11.9-11.9 11.9-3.1-3.1 8.8-8.8-8.8-8.8zm-11.3-3.2l3.1 3.1-8.8 8.8 8.8 8.8-3.1 3.1-11.9-11.9 11.9-11.9zM81.2 144.8H89l-3.7-31.3zM54.1 51.8h-3.5v5.1h3.5c1.7 0 2.4-.7 2.4-2.1V54c0-1.5-.8-2.2-2.4-2.2zM54.1 42.6h-3.5v5.1h3.5c1.7 0 2.4-.8 2.4-2.2v-.8c0-1.4-.8-2.1-2.4-2.1zM7.2 7.7v172.8l144.8 144 144.8-144V7.7H7.2zm236.2 28.1h9.9v20.1h13.8v7.7h-23.7V35.8zm-26.9 0h9.9v20.1h13.8v7.7h-23.7V35.8zm-22.7 0h10.3l9.8 27.8h-10.4l-1.2-4.3h-8l-1.4 4.3h-8.8l9.7-27.8zm-37.1 0H173c5.6 0 9.2 2.5 9.2 7.4v.3c0 2.3-1.6 5.4-5.1 6.1 3.7.7 5.3 3.5 5.3 6v.6c0 5-3.6 7.4-9.2 7.4h-16.5V35.8zm-28 0h23.7V43h-13.8v4.2h9.1v4.4h-9.1v4.3h13.8v7.7h-23.7V35.8zm-29.3 8.3c0-4.8 4.9-9 12.6-9 5.7 0 10 2.3 13 5.2l-5.3 4.5c-2.5-2-5.3-3.3-7.9-3.3-2 0-3.1.8-3.1 1.8 0 3.7 16.2 2.5 16.2 11.5 0 5.2-5.6 9.3-13 9.3-6 0-10.6-2.1-14.4-5.1l4.6-5.3c3 2.5 7 4 9.9 4 2.5 0 3.3-.9 3.3-2.1.1-3.6-15.9-2-15.9-11.5zm-21.7-8.3H88l9.8 27.8H87.3l-1.2-4.3h-8l-1.4 4.3H68l9.7-27.8zm-37.1 0h16.2c5.6 0 9.2 2.5 9.2 7.4v.3c0 2.3-1.6 5.4-5.1 6.1 3.7.7 5.3 3.5 5.3 6v.6c0 5-3.6 7.4-9.2 7.4H40.6V35.8zM38 77.7h230.2v4.4H38v-4.4zm118 19.2h7.5l-10.7 30.2 11 39.9h-7.9l-7.9-31.2-3.8 11.8V167h-7.6V96.9h7.6v36.7L156 96.9zm-38.6 6.2c-4 0-6.1 2.6-6.1 6v45.7c0 3.5 2.1 6 6.1 6 3.8 0 5.9-2.5 5.9-6.1v-12.3h6.6V154c0 8.1-4.6 14.1-12.9 14.1s-13.4-6.2-13.4-14.4v-43.4c0-8.1 5.2-14.4 13.4-14.4s12.9 6 12.9 14.1v11.5h-6.6v-12.2c0-3.6-2.1-6.2-5.9-6.2zM66.1 167h-7.5v-31.3H46.8V167h-7.7V96.9h7.7v31.8h11.9V96.9h7.5V167zm25.7 0l-1.9-15.2h-9.7L78 167h-7.2l10.6-70.2h7.9L99.6 167h-7.8zm106 75.9h-95.3v-8h8.3v-47h77.8v47h9.2v8zm9.4-91.4c0 9.8-3.8 15.5-12.9 15.5h-13.7V96.9h13.7c9.1 0 12.9 5.7 12.9 15.5v39.1zm25 15.5l-1.9-15.2h-9.7l-2.2 15.2h-7.2l10.6-70.2h7.9L240 167h-7.8zm25.8-27.7V167h-7.6v-27.7l-10.9-42.5h7.6l7.5 32.7 7.5-32.7h7.3L258 139.3zM198.6 45.4l-2.5 8.1h4.6zM221.5 144.8h7.8l-3.7-31.3zM170.2 51.8h-3.5v5.1h3.5c1.7 0 2.4-.7 2.4-2.1V54c0-1.5-.7-2.2-2.4-2.2zM170.2 42.6h-3.5v5.1h3.5c1.7 0 2.4-.8 2.4-2.2v-.8c0-1.4-.7-2.1-2.4-2.1z"/></g></svg>