<svg id="Layer_1" data-name="Layer 1" xmlns="http://www.w3.org/2000/svg" viewBox="0 0 240.32 262.87"><defs><style>.cls-1{fill:#fff;}.cls-2{fill:#c44444;}</style></defs><title>Artboard 2</title><rect class="cls-1" x="17.88" y="4.79" width="205.43" height="141.16"/><rect class="cls-1" x="62.15" y="144.16" width="111.44" height="58.35"/><path class="cls-2" d="M155.07,80.09h-4.81v46h4.81c3.23,0,4.54-1.92,4.54-6.2V86.38C159.61,82,158.3,80.09,155.07,80.09Z"/><polygon class="cls-2" points="62.41 31.3 60.36 37.99 64.14 37.99 62.41 31.3"/><path class="cls-2" d="M89.67,188.45h57.2V153.14H89.67Zm32.25-24.28,2.6-2.6,9.86,9.86-9.86,9.86-2.6-2.6,7.26-7.26Zm-9.34-2.6,2.6,2.6-7.26,7.26,7.25,7.26-2.59,2.6-9.86-9.86Z"/><polygon class="cls-2" points="61.38 113.74 67.85 113.74 64.79 87.78 61.38 113.74"/><path class="cls-2" d="M38.86,36.6H35.92v4.19h2.94c1.39,0,2-.58,2-1.76V38.4C40.87,37.19,40.25,36.6,38.86,36.6Z"/><path class="cls-2" d="M38.86,29H35.92v4.19h2.94c1.39,0,2-.66,2-1.8v-.62C40.87,29.54,40.25,29,38.86,29Z"/><path class="cls-2" d="M0,0V143.38L120.16,262.87,240.32,143.38V0ZM196,23.3h8.24V40h11.43v6.37H196Zm-22.37,0h8.24V40h11.43v6.37H173.59Zm-18.77,0h8.56l8.1,23.07h-8.66l-1-3.6H155.2l-1.14,3.6h-7.31ZM124,23.3h13.47c4.64,0,7.65,2.05,7.65,6.17v.28a5.19,5.19,0,0,1-4.26,5,5.14,5.14,0,0,1,4.44,4.95v.49c0,4.12-3,6.16-7.62,6.16H124Zm-23.24,0h19.68v6H109.05v3.5h7.51v3.67h-7.51V40h11.43v6.41H100.8ZM76.5,30.23c0-4,4-7.48,10.46-7.48a15,15,0,0,1,10.8,4.33L93.4,30.82a10.9,10.9,0,0,0-6.55-2.7c-1.69,0-2.6.62-2.6,1.52,0,3.08,13.44,2.08,13.44,9.56,0,4.33-4.6,7.72-10.8,7.72A18.41,18.41,0,0,1,75,42.66l3.85-4.43a14.44,14.44,0,0,0,8.24,3.33c2,0,2.7-.77,2.7-1.74C89.76,36.78,76.5,38.09,76.5,30.23Zm-18-6.93H67l8.11,23.07H66.46l-1-3.6H58.84l-1.14,3.6H50.39Zm-30.78,0H41.15c4.64,0,7.65,2.05,7.65,6.17v.28a5.19,5.19,0,0,1-4.26,5A5.13,5.13,0,0,1,49,39.72v.49c0,4.12-3,6.16-7.62,6.16H27.68ZM25.52,58.11H216.46v3.68H25.52ZM123.43,74h6.21l-8.92,25.08,9.09,33.13h-6.55l-6.56-25.87-3.14,9.79v16.08h-6.3V74h6.3v30.42Zm-32,5.16a4.69,4.69,0,0,0-5.07,5V122c0,2.89,1.74,5,5.07,5,3.14,0,4.89-2.09,4.89-5.07V111.73h5.51v9.61c0,6.73-3.85,11.71-10.67,11.71s-11.1-5.15-11.1-12v-36c0-6.73,4.29-12,11.1-12s10.67,5,10.67,11.71v9.52H96.34V84.2C96.34,81.31,94.59,79.13,91.45,79.13ZM48.89,132.18H42.68v-26H32.8v26H26.42V74H32.8v26.4h9.88V74h6.21Zm21.32,0-1.57-12.59h-8l-1.83,12.59H52.82L61.64,74H68.2l8.48,58.21Zm87.94,62.93H79.1v-6.66H86v-39h64.55v39h7.61Zm7.76-75.78c0,8.13-3.15,12.85-10.67,12.85H143.88V74h11.36c7.52,0,10.67,4.72,10.67,12.85Zm20.71,12.85L185,119.59h-8l-1.83,12.59h-5.95L178.05,74h6.56l8.48,58.21Zm21.41-23v23h-6.29v-23l-9-35.22H199l6.2,27.09L211.44,74h6Z"/><polygon class="cls-2" points="158.77 31.3 156.73 37.99 160.5 37.99 158.77 31.3"/><polygon class="cls-2" points="177.79 113.74 184.26 113.74 181.2 87.78 177.79 113.74"/><path class="cls-2" d="M135.22,36.6h-2.94v4.19h2.94c1.39,0,2-.58,2-1.76V38.4C137.23,37.19,136.61,36.6,135.22,36.6Z"/><path class="cls-2" d="M135.22,29h-2.94v4.19h2.94c1.39,0,2-.66,2-1.8v-.62C137.23,29.54,136.61,29,135.22,29Z"/></svg>