<?xml version="1.0" encoding="utf-8"?>
<!-- Generator: Adobe Illustrator 21.0.0, SVG Export Plug-In . SVG Version: 6.00 Build 0)  -->
<!DOCTYPE svg PUBLIC "-//W3C//DTD SVG 1.1//EN" "http://www.w3.org/Graphics/SVG/1.1/DTD/svg11.dtd">
<svg version="1.1" id="Layer_1" xmlns="http://www.w3.org/2000/svg" xmlns:xlink="http://www.w3.org/1999/xlink" x="0px" y="0px"
	 viewBox="0 0 433 130" style="enable-background:new 0 0 433 130;" xml:space="preserve">
<style type="text/css">
	.st0{fill:#FFFFFF;}
</style>
<path d="M425.2,63.9c0-10.8,0.1-20.3,0.9-30.2V22.1c-1.3-3.2-0.7-7.9-1-12c-2.9,1.3-5.2,0.9-8.4,0.7c-3.8-0.3-8.1-0.3-12.5-0.2
	c-6.1,0.1-12.4,1.3-18.6,0.7c-2.5-0.2-4.9,0.2-7.2,0c-1.2-0.1-2.4-0.7-3.6-0.7c-0.8,0-1.8,0.5-2.6,0.4c-0.9-0.1-1.7-0.8-2.6-0.9
	c-0.7,0-1.5,0.4-2.2,0.4c-4.4,0-8.5-0.4-12.5-0.4c-3.5,0-7.1,0.8-10.8,1.1c-3.6,0.4-7.3,0.1-10.9,0.2c-7.4,0.2-15.1-1.1-22.1-0.9
	c-3.7,0.1-7.3-0.4-10.6,0c-0.7,0.1-1.8,0.8-2.6,0.7c-1.1-0.2-1.5-1.5-2.9-1.8h-2.2c-1.5,1.3-3.9,0.1-5.8,0h-4.4
	c-4.4,1.2-9.1,0.2-13.7,0.7c-7.1,0.8-16.6,1.3-24.5,0.4c-3.3-0.4-6.5-0.1-9.6-0.4c-1.5-0.2-2.9-0.6-4.4-0.4
	c-1.5,0.2-2.8,0.8-4.3,0.9c-1.5,0.1-2.9-0.3-4.3-0.4c-2.8-0.3-6.1-0.2-8.7,0c-0.9,0.1-1.6,0.6-2.6,0.7c-5.4,0.6-11-0.3-16.8,0
	c-5.6,0.3-11.3-0.1-16.9,0.4c-2,0.2-4.5-0.2-5.8-0.2c-4.5-0.1-10.3,0-14.5-0.4c-1.6-0.2-3.2-0.8-4.8-0.9c-0.8,0-1.7,0.4-2.6,0.4
	c-1.1,0-2.2-0.6-3.2-0.4c-1.1,0.1-2.1,0.9-3.2,1.1c-5.7,0.9-11.6-1-16.9-1.3h-7.9c-8.1,1.6-17.4,0.3-25.7,1.1
	c-9.2,0.9-19.1-1.4-27,0.7c-5.6-1.7-11.6-0.3-17.8-0.4c-2.9-0.1-5.8-0.7-8.7-0.7c-4.1,0-8.2,1.3-12.1,1.1c-4.1-0.2-8.9-1.5-13.2-1.1
	c-1,0.1-1.8,0.6-2.7,0.7c-0.8,0.1-1.5-0.6-2.2,0v1.1c1.4,1,0.1,3.3,0,4.9v2.2c1,7.3,0.7,15.3,0,22v5.6c0.3,2.2,0.3,6,0,8.2v9.8
	c0.7,3.9,0.7,8.1,0.5,12c-0.5,8.2,0.3,17-0.5,23.8v9.3c0.7,2.9,1,7.3,0.2,10.2c2.7,1.5,5.3,0.2,8,0.2c1,0,1.9,0.6,2.9,0.7
	c2.1,0.2,4.2-0.2,6.3-0.2c2,0,4,0.5,6,0.7c4.1,0.4,7.2,0.1,10.6,0c1.1,0,2.2,0.5,3.3,0.4c2.4,0,4.7-0.7,7.2-0.4
	c4.8,0.5,9.8,1.1,14.5,0.4c1-0.1,1.9-0.7,2.9-0.9c3.4-0.6,6.7,0.5,9.9,0c1.2-0.2,2.4-1,3.8-1.1c1,0,2,0.3,2.9,0.4
	c4.7,0.5,9.1,0.1,13.3,0.7c2.4,0.3,4.8,1,7,0.9c3.5-0.2,6.9-1.5,10.4-1.6c2.5,0,4.8,0.2,7.4,0.2c8,0.1,17.1,0.3,25,0.4
	c3.2,0.1,6.2-1,9.4-1.3c3.4-0.3,6.8,0.6,9.2,0.7c2,0.1,4.3-0.8,6.5-0.7c3.5,0.3,6.6,1.5,9.6,0.7c1.8-0.5,3.9-0.7,6.3-0.4
	c2.7,0.3,5.5,0.1,7.9,0.4c2.8,0.5,5.7,1.3,8.7,1.6c3.1,0.3,6.5,0,9.7,0c3.3,0,6.7,0.6,9.6,0.2c1.1-0.1,2.2-0.9,3.2-1.1
	c6.5-1.1,14.6,1.2,21.9,0.4c3.2-0.4,6.5-1.5,9.2-1.1c1,0.1,1.9,0.7,2.9,0.7s2.1-0.6,3.1-0.7c2.6-0.3,6,0.9,9.2,1.1
	c1.8,0.1,3.5-0.2,5.1,0c4.6,0.5,9.1,1.3,13.5,0.4c2-0.4,3.9-1.3,6-1.6c9.9-1.1,18.2,0.5,28.1,0.7c3,0.1,5.9-0.7,8.4-0.2
	c1,0.2,2,1.1,3.1,1.1c1.2,0.1,2.4-0.5,3.6-0.4c4,0.2,7.6,1.6,12.3,1.1c3.2-0.3,6.5-0.3,9.6-0.7c2.9-0.4,6.6-0.1,9.9-0.4
	c1.9-0.2,3.6-0.7,5.3-0.7c1.8,0,3.6,0.7,5.5,0.7c1,0,2.1-0.6,3.2-0.7c3-0.3,6.2,0.6,9.1,0.2c2.8-0.3,5.6-1.3,8.4-1.1
	c1.1,0.1,2.2,0.9,3.3,0.9c2.2,0,4.9-0.2,7.2-0.4c1-0.1,1.9-0.6,2.9-0.4c1.4,0.2,2.8,1.7,4.6,1.3c0-7.7-0.5-13.8,0-20.7
	c0.2-3-0.4-5.7-0.5-8.7c-0.2-5.8,0-11.7-0.3-17.6c0-0.2,0-0.4,0-0.7C424.7,70.2,425.2,67.1,425.2,63.9"/>
<path class="st0" d="M111.2,28.7c3.4,2.5,5.1,5.7,5.1,9.6s-1.3,7.3-3.8,10.2c-4.5,5.4-11.5,8.9-21,10.4L88,59.5
	c3.7,11.4,11.3,22.7,23.1,33.9c-1.1,0.2-2.8,0.3-5.1,0.3l-8.5-0.3c-2.9,0-6-2.6-9.3-7.7c-3.3-5.2-5.8-10.4-7.7-15.8
	c-1.9-5.4-2.9-8.9-2.9-10.7c0-1,0.5-1.5,1.5-1.6c17.2-1.9,26.1-7.9,26.6-18.1c0-3.6-1.2-6.4-3.6-8.4c-2.4-2-6.3-3.1-11.7-3.4
	c-5.7,6.9-12,17.9-19,33.1c-6.9,15.4-10.3,25.6-10.3,30.5c0,1,0.1,1.7,0.4,2.2h-14c2-7.9,6.4-19,13-33.1c8.8-18.8,14.5-29.5,17-32
	c-6.2,0.1-12.5,1.3-18.9,3.4s-10.1,4.7-11.1,7.6c-0.1,0.2-0.2,0.3-0.4,0.3c-0.7,0-1-0.4-1-1.3c0-0.1,0.1-0.5,0.2-1
	c1.4-3.6,3.4-6.4,6-8.4s5.2-3.2,7.7-3.6c2.5-0.5,5.7-0.7,9.4-0.7H96C102.7,24.9,107.8,26.2,111.2,28.7z"/>
<path class="st0" d="M151.8,68.1c0.4,0,0.7,0.6,0.7,1.9s-0.6,2.8-1.8,4.6c-1.2,1.8-2.3,3.4-3.5,5c-1.1,1.6-2.7,3.4-4.6,5.5
	c-1.9,2.1-3.8,3.8-5.6,5c-4.6,3-9.2,4.5-13.9,4.5c-4.6,0-8.4-1.1-11.3-3.2c-2.9-2.1-4.3-5.4-4.3-9.8c0-6.7,2.7-12.9,8.2-18.6
	s11.9-8.6,19.2-8.6c3.3,0,5.9,0.8,7.9,2.3s3,3.4,3,5.6c0,3.7-1.9,6.6-5.8,8.9c-3.9,2.2-8.5,3.3-13.7,3.3c-3.1,0-5.3-0.4-6.8-1.1
	c-1.4,3.3-2.1,6.3-2.1,8.9c0,5.5,2.6,8.3,7.8,8.3c3.1,0,6.2-1.1,9.5-3.2s6-4.5,8.3-7.2s4.9-6.5,7.9-11.5
	C151.3,68.3,151.6,68.1,151.8,68.1z M140.1,60.3c0-1.9-1-2.9-3.1-2.9c-2.9,0-6,1.6-9.6,4.7c-3.5,3.2-5.3,5.7-5.3,7.7
	c0,1.3,1.4,2,4.2,2s5.7-1.2,8.7-3.6C138.2,65.8,139.8,63.1,140.1,60.3z"/>
<path class="st0" d="M191.5,54.3l5.5,0.1h1.1c-2.4,1.8-5.4,6.3-8.9,13.5s-5.3,12.4-5.3,15.7c0,1.7,0.7,2.6,2,2.6
	c4.2,0,9.7-5.6,16.2-16.8c0.3-0.5,0.5-0.7,0.8-0.7c0.4,0,0.7,0.6,0.7,1.8c0,1.2-0.4,2.4-1.1,3.5c-9,13.6-16.5,20.4-22.6,20.4
	c-4,0-5.9-2.7-5.9-8.2c0-4.1,0.8-8.1,2.3-12c-8.3,13.3-16.1,19.9-23.2,19.9c-4.9,0-7.4-3-7.4-9.1c0-4.6,1.1-9.3,3.3-14
	s5.4-8.8,9.6-12.1c4.2-3.3,8.7-5,13.7-5c2.3,0,4.5,0.5,6.6,1.4c2,1,3.4,2.5,4.1,4.6c0.8-1.5,2-2.8,3.7-3.9
	C188.5,54.8,190.1,54.3,191.5,54.3z M182.4,60.8c-0.7-2.1-2.5-3.2-5.2-3.2c-4.8,0-9.5,3-14.1,9c-4.5,6-6.8,11.4-6.8,16.1
	c0,2,0.9,3.1,2.6,3.1c1.9,0,4.1-1.1,6.7-3.2c2.6-2.1,4.9-4.6,6.9-7.5C177.2,68.6,180.4,63.9,182.4,60.8z"/>
<path class="st0" d="M239.6,33.6c-2.6,4.8-6.7,10.2-12.1,16.3c-5.4,6.1-10.3,11-14.6,14.6l-1.8,4.5c-0.9,2.3-1.7,5.1-2.5,8.4
	s-1.2,5.6-1.1,7c0,2,0.8,3,2.4,3c1.6,0,3.5-0.8,5.8-2.5c2.2-1.6,3.9-3.1,4.9-4.3c1-1.2,2.2-2.8,3.6-4.8s2.5-3.7,3.5-5.1
	s1.6-2.2,1.7-2.2c0.4,0,0.7,0.6,0.7,1.8c0,1.2-0.4,2.4-1.1,3.5c-4,6.1-7.3,10.4-9.8,12.9c-5.1,5-10.2,7.5-15.6,7.5
	c-4.1,0-6.1-2.5-6.1-7.5c0-4.9,2.5-13.5,7.4-25.8c0.4-1.1,1.2-3.3,2.5-6.6c1.3-3.4,2.5-6,3.4-7.8c1-1.9,2.2-4.4,3.8-7.4
	c1.6-3.1,3.2-5.6,4.7-7.4s3.2-3.7,5-5.6c3.6-3.8,7.5-5.7,11.6-5.7s6.3,1.7,6.3,5.1C242.1,28.1,241.3,30.8,239.6,33.6z M237.3,22.9
	h-0.8c-4.5,0-11.6,12-21.4,36.1c10-10.6,16.9-19.2,20.5-26c2-4.1,3.1-6.8,3.1-8.1C238.7,23.5,238.2,22.9,237.3,22.9z"/>
<path class="st0" d="M272.4,72.6c-4.4,7.2-9.2,12.8-14.3,16.9c-5.1,4-11.2,6-18.2,6s-11-1.6-11.9-4.8l-6.1,17.2
	c-1.5,3.9-2.6,6.4-3.3,7.5c-0.8,1.1-1.6,1.9-2.6,2.2c-1,0.3-2.2,0.5-3.6,0.5h-5.3c1.9-2.5,5.7-11.1,11.5-25.9S228.2,68,230.1,64
	c1.9-4.1,3.2-6.5,4.1-7.4c1.8-1.6,4.8-2.4,9.1-2.4h3.3c-2.1,1.3-5,5.3-8.7,11.8c6.8-8.1,12.8-12.2,18-12.2c4.9,0,7.4,3,7.4,9.1
	c0,5-1.8,10.1-5.3,15.4s-7.6,9.3-12.4,12.2h0.9c3,0,6.1-1.1,9.2-3.3c3.1-2.2,5.8-4.6,8.1-7.2c1.2-1.4,3-3.9,5.3-7.3s3.5-5.2,3.6-5.2
	c0.6,0,0.9,0.6,0.9,1.7C273.5,70.4,273.2,71.5,272.4,72.6z M251,62.3c-0.2-0.1-0.5-0.1-1-0.1c-1.5,0-3.2,0.7-5.1,2
	c-3,2.1-6.2,5.6-9.6,10.4c-3.4,4.9-5,8.8-5,11.9s1.1,4.6,3.2,4.6c3.8,0,7.9-3.4,12.4-10.1c4.5-6.8,6.7-12.1,6.7-15.9
	C252.7,63.5,252.1,62.5,251,62.3z"/>
<path class="st0" d="M308.8,33.6c-2.6,4.8-6.7,10.2-12.1,16.3c-5.4,6.1-10.3,11-14.6,14.6l-1.8,4.5c-0.9,2.3-1.7,5.1-2.5,8.4
	s-1.2,5.6-1.1,7c0,2,0.8,3,2.4,3s3.5-0.8,5.8-2.5c2.2-1.6,3.9-3.1,4.9-4.3c1-1.2,2.2-2.8,3.6-4.8s2.5-3.7,3.5-5.1s1.6-2.2,1.7-2.2
	c0.4,0,0.7,0.6,0.7,1.8c0,1.2-0.4,2.4-1.1,3.5c-4,6.1-7.3,10.4-9.8,12.9c-5.1,5-10.2,7.5-15.6,7.5c-4.1,0-6.1-2.5-6.1-7.5
	c0-4.9,2.5-13.5,7.4-25.8c0.4-1.1,1.2-3.3,2.5-6.6s2.5-6,3.4-7.8c1-1.9,2.2-4.4,3.8-7.4c1.6-3.1,3.2-5.6,4.7-7.4s3.2-3.7,5-5.6
	c3.6-3.8,7.5-5.7,11.6-5.7s6.3,1.7,6.3,5.1C311.3,28.1,310.5,30.8,308.8,33.6z M306.5,22.9h-0.8c-4.5,0-11.6,12-21.4,36.1
	c10-10.6,16.9-19.2,20.5-26c2-4.1,3.1-6.8,3.1-8.1C307.9,23.5,307.4,22.9,306.5,22.9z"/>
<path class="st0" d="M338.5,54.3l5.5,0.1h1.1c-2.4,1.8-5.4,6.3-8.9,13.5s-5.3,12.4-5.3,15.7c0,1.7,0.7,2.6,2,2.6
	c4.2,0,9.7-5.6,16.2-16.8c0.3-0.5,0.5-0.7,0.8-0.7c0.4,0,0.7,0.6,0.7,1.8c0,1.2-0.4,2.4-1.1,3.5c-9,13.6-16.5,20.4-22.6,20.4
	c-4,0-5.9-2.7-5.9-8.2c0-4.1,0.8-8.1,2.3-12c-8.3,13.3-16.1,19.9-23.2,19.9c-4.9,0-7.4-3-7.4-9.1c0-4.6,1.1-9.3,3.3-14
	c2.2-4.7,5.4-8.8,9.6-12.1c4.2-3.3,8.7-5,13.7-5c2.3,0,4.5,0.5,6.6,1.4c2,1,3.4,2.5,4.1,4.6c0.8-1.5,2-2.8,3.7-3.9
	C335.5,54.8,337.1,54.3,338.5,54.3z M329.4,60.8c-0.7-2.1-2.5-3.2-5.2-3.2c-4.8,0-9.5,3-14.1,9c-4.5,6-6.8,11.4-6.8,16.1
	c0,2,0.9,3.1,2.6,3.1c1.9,0,4.1-1.1,6.7-3.2s4.9-4.6,6.9-7.5C324.2,68.6,327.4,63.9,329.4,60.8z"/>
<path class="st0" d="M389.4,55.3h4.5c-2.3,1.2-4.6,4.3-6.9,9.3c-1.9,4.1-3.5,7.9-4.8,11.3s-2.1,5.4-2.4,6.2c-0.3,0.7-1,2.5-2,5.3
	c-1.1,2.8-1.9,4.9-2.6,6.5c-1.8,4.6-4,8.2-6.4,10.9c-2.4,2.7-5.4,4.8-9,6.5c-3.6,1.6-7.2,2.4-10.9,2.4c-3.7,0-6.8-0.6-9.4-1.9
	s-3.9-3.3-3.9-6.1c0-1.4,0.5-2.7,1.5-3.9c1-1.2,2.1-1.7,3.4-1.7s2.4,0.3,3.2,0.8c0.9,0.5,1.5,1.1,1.9,1.8c-1.3,0.4-2,1.8-2,4.1
	c0,1.2,0.5,2.2,1.5,3s2.2,1.1,3.8,1.1c5.9,0,10.9-4.8,14.9-14.3l6.3-15c-3.4,3.9-6.4,6.8-8.9,8.7c-2.5,1.9-4.5,3.1-5.9,3.5
	s-3.1,0.6-5.1,0.6c-1.9,0-3.5-0.7-4.7-2.1s-1.7-3.5-1.7-6.2s0.9-6.6,2.6-11.7s3.6-9.1,5.7-12c2.1-3,4.2-4.9,6.5-5.7
	c2.2-0.9,5.3-1.3,9.2-1.3c0.3,0,0.4,0.1,0.4,0.4s-0.2,0.6-0.7,1c-3,2.4-6.1,6.6-9.2,12.7s-4.7,11.3-4.7,15.5c0,2.2,0.7,3.3,2.1,3.3
	c2.6,0,6-2.4,10.1-7.1s7.2-9.5,9.4-14.2c0.3-0.7,0.7-1.6,1.3-2.9c0.5-1.2,0.9-2.1,1.2-2.6c0.2-0.5,0.6-1.1,1-1.9
	c0.5-0.8,0.9-1.4,1.3-1.7c0.4-0.3,0.9-0.7,1.5-1.1c0.6-0.5,1.3-0.8,1.9-0.9C385.6,55.5,387.5,55.3,389.4,55.3z"/>
<g>
	<path class="st0" d="M387.3,87.8l-1.5-0.1c-0.1,0-0.3,0.4-0.7,1.2c-0.4,0.8-0.7,1.6-1,2.4s-0.4,1.3-0.4,1.7c0,0.3,0.1,0.5,0.3,0.5
		c0.2,0,0.5-0.2,0.8-0.7l0.1-0.1c0,0,0.1,0,0.1,0.1s0,0.2-0.1,0.3s-0.2,0.3-0.4,0.5c-0.2,0.2-0.4,0.4-0.6,0.5s-0.5,0.2-0.8,0.2
		c-0.4,0-0.6-0.3-0.6-0.8c0-0.7,0.3-1.8,1-3.3c0.5-1.1,0.9-2,1.3-2.8h-0.1h-1.1c-0.6,0-1.1,0.1-1.6,0.2c-0.2,0.1-0.4,0.2-0.6,0.4
		c-0.1,0.2-0.2,0.4-0.2,0.6l0.1,0.4c0,0.1,0,0.1-0.1,0.1S381,89,381,88.8s-0.1-0.3-0.1-0.5c0-0.3,0.1-0.6,0.2-0.8s0.4-0.4,0.6-0.5
		c0.5-0.2,1.1-0.3,1.7-0.3s1.3,0,2.1,0.1c0.8,0.1,1.5,0.1,2.1,0.1s1-0.1,1.2-0.3v0.1c0,0.2-0.1,0.4-0.4,0.5
		C388.2,87.7,387.8,87.8,387.3,87.8z"/>
	<path class="st0" d="M397.3,87h0.6c-0.3,0.2-0.8,1-1.4,2.3c-0.9,1.9-1.4,3.3-1.4,4.1c0,0.4,0.1,0.6,0.4,0.6c0.1,0,0.2,0,0.4-0.1
		l0,0c0,0,0,0,0,0.1s-0.2,0.3-0.5,0.4c-0.4,0.1-0.6,0.2-0.9,0.2c-0.5,0-0.7-0.3-0.7-0.8c0-0.9,0.7-2.7,2.1-5.4
		c-0.3,0.3-0.5,0.5-0.6,0.6c-0.7,0.7-1.7,2-3,3.7c-0.3,0.4-0.5,0.6-0.6,0.7s-0.2,0.1-0.4,0.1c-0.2,0-0.4-0.1-0.6-0.2
		c0.2-0.2,0.3-0.9,0.3-2s-0.1-2.2-0.2-3.1c-0.2,0.5-0.7,1.5-1.4,3.1c-0.7,1.6-1,2.6-1,3v0.1h-1c0.4-1,1-2.4,1.7-4s1.2-2.7,1.3-3
		c-0.6,0-1.3,0.1-1.9,0.4c-0.6,0.2-1,0.5-1.1,0.9l0,0c-0.1,0-0.1,0-0.1-0.1c0,0,0-0.1,0.1-0.3s0.2-0.4,0.3-0.5s0.3-0.3,0.5-0.4
		c0.3-0.1,0.8-0.2,1.3-0.2h1.3c0.2,0,0.4,0,0.5,0.1s0.2,0.2,0.3,0.5c0,0.3,0.1,0.9,0.1,1.8s0.1,1.6,0.1,2s0,0.6,0,0.8
		c1-1.2,2.3-2.8,3.9-4.7C396.2,87.2,396.7,87,397.3,87z"/>
</g>
</svg>
