<?xml version="1.0" encoding="utf-8"?>
<!-- Generator: Adobe Illustrator 17.1.0, SVG Export Plug-In . SVG Version: 6.00 Build 0)  -->
<!DOCTYPE svg PUBLIC "-//W3C//DTD SVG 1.1//EN" "http://www.w3.org/Graphics/SVG/1.1/DTD/svg11.dtd">
<svg version="1.1" id="Layer_1" xmlns="http://www.w3.org/2000/svg" xmlns:xlink="http://www.w3.org/1999/xlink" x="0px" y="0px"
	 width="325px" height="87px" viewBox="0 0 325 87" enable-background="new 0 0 325 87" xml:space="preserve">
<g>
	<path d="M72.1,41.7v-4.4h1.9v4.4H72.1z M72.1,74.9V48.5h1.9v26.4H72.1z"/>
	<path d="M83.6,74.9V48.5h1.9v3.3h0.1c0.3-1,0.7-1.7,1.1-2.2c0.4-0.5,0.8-0.9,1.3-1.2c0.5-0.2,1.1-0.4,1.9-0.4c1.7,0,2.9,0.7,3.5,2
		c0.7,1.4,1,3.4,1,6.2v18.7h-1.9v-18c0-1.8-0.2-3.3-0.6-4.4c-0.4-1.1-1.2-1.6-2.4-1.6c-1.3,0-2.3,0.5-3,1.6c-0.7,1.1-1,2.9-1,5.6
		v16.8H83.6z"/>
	<path d="M106.3,74.9L102,48.5h2l3.6,23.1h0.1l3.6-23.1h2L109,74.9H106.3z"/>
	<path d="M131.8,62.5h-8.9v2.5c0,2,0.1,3.6,0.3,4.6c0.2,1,0.5,1.8,0.9,2.2c0.5,0.4,1.1,0.7,2.1,0.7c1.2,0,2-0.1,2.5-0.3
		c0.5-0.2,0.8-0.6,1-1.4c0.2-0.7,0.3-2,0.3-3.7h1.9v1c0,1.8-0.1,3.3-0.4,4.3c-0.3,1-0.8,1.8-1.6,2.2c-0.8,0.5-1.9,0.7-3.4,0.7
		c-1.7,0-2.9-0.4-3.7-1.2c-0.8-0.8-1.3-2.1-1.6-4c-0.2-1.9-0.4-4.7-0.4-8.5c0-2.8,0.1-5,0.2-6.8c0.2-1.8,0.5-3.1,0.9-4.1
		c0.4-1,1-1.7,1.7-2.1c0.7-0.4,1.7-0.6,2.8-0.6c1.5,0,2.6,0.4,3.4,1.1c0.8,0.7,1.3,1.8,1.6,3.3c0.3,1.5,0.4,3.5,0.4,6.1V62.5z
		 M122.8,59.2h7.1c0-2.3-0.1-4-0.2-5c-0.1-1-0.4-1.9-0.9-2.4c-0.5-0.6-1.3-0.8-2.4-0.8c-1.1,0-1.9,0.3-2.4,0.8
		c-0.5,0.6-0.8,1.4-0.9,2.5C122.9,55.4,122.8,57,122.8,59.2z"/>
	<path d="M140.9,74.9V48.5h1.9v3h0.1c0.2-0.8,0.5-1.5,0.8-2c0.3-0.5,0.7-0.9,1.1-1.1c0.4-0.2,1-0.4,1.6-0.4c0.8,0,1.5,0.2,2,0.7
		c0.5,0.5,0.9,1.2,1.2,2.2c0.2,1,0.4,2.4,0.4,4.2v2.1h-1.7c0-1.8-0.1-3.1-0.2-4c-0.1-0.9-0.4-1.5-0.7-1.8c-0.4-0.4-0.9-0.5-1.6-0.5
		c-2,0-2.9,1.8-2.9,5.5v18.5H140.9z"/>
	<path d="M157.9,66.7h1.9c0,1.6,0.1,2.8,0.2,3.6c0.2,0.8,0.5,1.3,0.9,1.6c0.5,0.3,1.2,0.5,2.1,0.5c1.1,0,1.9-0.1,2.4-0.4
		c0.5-0.3,0.8-0.8,1-1.5c0.2-0.7,0.3-1.9,0.3-3.4c0-1.2-0.1-2.1-0.2-2.6c-0.1-0.5-0.5-0.8-0.9-1c-0.5-0.2-1.4-0.3-2.7-0.5
		c-1.4-0.1-2.4-0.4-3-0.8c-0.7-0.4-1.1-1.1-1.4-2c-0.3-1-0.4-2.4-0.4-4.4c0-2,0.1-3.5,0.4-4.6c0.2-1.1,0.7-1.9,1.4-2.4
		c0.7-0.5,1.8-0.8,3.3-0.8c1.5,0,2.6,0.2,3.3,0.7c0.8,0.4,1.3,1.2,1.6,2.2c0.3,1,0.4,2.5,0.4,4.4h-1.9c0-1.3-0.1-2.3-0.3-2.9
		c-0.2-0.6-0.5-1-1-1.1c-0.5-0.2-1.2-0.2-2.3-0.2c-1,0-1.6,0.1-2.1,0.3c-0.4,0.2-0.7,0.6-0.9,1.2c-0.2,0.6-0.2,1.6-0.2,3
		c0,1.3,0.1,2.3,0.2,2.8c0.1,0.5,0.4,0.9,0.9,1.1c0.5,0.2,1.3,0.4,2.4,0.5c1.2,0.1,2.1,0.3,2.8,0.5c0.7,0.2,1.2,0.5,1.5,1
		c0.3,0.4,0.6,1.1,0.7,1.9c0.1,0.8,0.2,2,0.2,3.5c0,2.2-0.1,3.9-0.4,5.1c-0.3,1.2-0.8,2-1.6,2.5c-0.8,0.5-2,0.8-3.6,0.8
		c-1.3,0-2.3-0.2-3-0.5c-0.7-0.4-1.2-1.1-1.6-2.4C158.1,71.2,157.9,69.3,157.9,66.7z"/>
	<path d="M188.5,62.5h-8.9v2.5c0,2,0.1,3.6,0.3,4.6c0.2,1,0.5,1.8,0.9,2.2c0.5,0.4,1.1,0.7,2.1,0.7c1.2,0,2-0.1,2.5-0.3
		c0.5-0.2,0.8-0.6,1-1.4c0.2-0.7,0.3-2,0.3-3.7h1.9v1c0,1.8-0.1,3.3-0.4,4.3c-0.3,1-0.8,1.8-1.6,2.2c-0.8,0.5-1.9,0.7-3.4,0.7
		c-1.7,0-2.9-0.4-3.7-1.2c-0.8-0.8-1.3-2.1-1.6-4c-0.3-1.9-0.4-4.7-0.4-8.5c0-2.8,0.1-5,0.2-6.8c0.2-1.8,0.4-3.1,0.9-4.1
		c0.4-1,1-1.7,1.7-2.1c0.7-0.4,1.7-0.6,2.8-0.6c1.5,0,2.6,0.4,3.4,1.1c0.8,0.7,1.3,1.8,1.6,3.3c0.3,1.5,0.4,3.5,0.4,6.1V62.5z
		 M179.5,59.2h7.1c0-2.3-0.1-4-0.2-5c-0.1-1-0.4-1.9-0.9-2.4c-0.5-0.6-1.3-0.8-2.4-0.8c-1.1,0-1.9,0.3-2.4,0.8
		c-0.5,0.6-0.8,1.4-0.9,2.5C179.6,55.4,179.5,57,179.5,59.2z"/>
</g>
<g>
	<path d="M198.3,86.4l-0.2-37.9h4.3v2.7h0.1c0.4-1.3,0.8-2.2,1.3-2.6c0.4-0.4,1.1-0.6,1.9-0.6c1.3,0,2.3,0.5,2.8,1.6
		c0.5,1,0.8,2.9,0.8,5.6V70c0,3.6-1.1,5.3-3.3,5.3c-1.4,0-2.5-0.9-3.2-2.7h-0.1l-0.1,13.8H198.3z M202.6,55.6v12.1
		c0,1,0.3,1.5,1,1.5c0.7,0,1-0.5,1-1.5V55.6c0-1-0.3-1.4-1-1.4C202.9,54.2,202.6,54.7,202.6,55.6z"/>
	<path d="M218,56v-3.3c0-1.3,0.2-2.2,0.5-2.9c0.3-0.7,0.9-1.1,1.5-1.3c0.7-0.2,1.6-0.4,2.8-0.4c1.4,0,2.5,0.2,3.3,0.5
		c0.8,0.4,1.4,1.1,1.8,2.2c0.4,1.1,0.6,2.7,0.6,4.8v19.4h-4.3v-2.3h-0.1c-0.5,1.1-0.9,1.8-1.3,2.1c-0.4,0.3-1,0.5-1.9,0.5
		c-1,0-1.7-0.3-2.3-1c-0.5-0.6-0.9-1.6-1.1-2.8c-0.2-1.2-0.3-2.8-0.3-4.8c0-2.1,0.1-3.7,0.4-4.9c0.3-1.2,0.7-2,1.3-2.5
		c0.5-0.5,1.3-0.7,2.1-0.7c1.2,0,2.1,0.6,2.9,1.7v-5.8c0-0.9-0.4-1.3-1.1-1.3c-0.7,0-1.1,0.4-1.1,1.3V56H218z M221.9,65.8v1.5
		c0,0.9,0.1,1.5,0.3,1.8c0.1,0.3,0.4,0.4,0.8,0.4c0.4,0,0.7-0.2,0.9-0.5c0.1-0.3,0.2-0.8,0.2-1.4v-2.1c0-0.7-0.1-1.2-0.2-1.5
		c-0.1-0.3-0.4-0.4-0.9-0.4c-0.4,0-0.6,0.2-0.8,0.5C222,64.3,221.9,64.9,221.9,65.8z"/>
	<path d="M237.3,74.9V48.5h4.3v2.6h0.1c0.3-1.2,0.7-2,1.1-2.4c0.4-0.4,1.1-0.6,1.9-0.6c0.9,0,1.5,0.3,1.9,0.8
		c0.4,0.5,0.6,1.6,0.6,3.1V59h-3.7v-3.9c0-0.7-0.3-1-0.9-1c-0.6,0-0.9,0.5-0.9,1.4v19.4H237.3z"/>
	<path d="M254.8,56v-3.3c0-1.3,0.2-2.2,0.5-2.9c0.3-0.7,0.9-1.1,1.5-1.3c0.7-0.2,1.6-0.4,2.8-0.4c1.4,0,2.5,0.2,3.3,0.5
		c0.8,0.4,1.4,1.1,1.8,2.2c0.4,1.1,0.6,2.7,0.6,4.8v19.4h-4.3v-2.3H261c-0.5,1.1-0.9,1.8-1.3,2.1c-0.4,0.3-1,0.5-1.9,0.5
		c-1,0-1.7-0.3-2.3-1c-0.5-0.6-0.9-1.6-1.1-2.8c-0.2-1.2-0.3-2.8-0.3-4.8c0-2.1,0.1-3.7,0.4-4.9c0.3-1.2,0.7-2,1.3-2.5
		c0.6-0.5,1.3-0.7,2.1-0.7c1.2,0,2.1,0.6,2.9,1.7v-5.8c0-0.9-0.4-1.3-1.1-1.3c-0.7,0-1.1,0.4-1.1,1.3V56H254.8z M258.8,65.8v1.5
		c0,0.9,0.1,1.5,0.3,1.8c0.1,0.3,0.4,0.4,0.8,0.4c0.4,0,0.7-0.2,0.9-0.5c0.1-0.3,0.2-0.8,0.2-1.4v-2.1c0-0.7-0.1-1.2-0.2-1.5
		c-0.1-0.3-0.4-0.4-0.9-0.4c-0.4,0-0.6,0.2-0.8,0.5C258.9,64.3,258.8,64.9,258.8,65.8z"/>
	<path d="M274.1,68.1V53.4c0-3.6,1.1-5.3,3.3-5.3c1.4,0,2.5,0.9,3.2,2.8h0.1V37.4h4.5v37.5h-4.3v-2.8h-0.1c-0.4,1.3-0.8,2.2-1.3,2.6
		c-0.4,0.4-1.1,0.6-1.9,0.6c-0.7,0-1.2-0.1-1.7-0.4c-0.5-0.3-0.8-0.7-1.1-1.2c-0.3-0.5-0.5-1.3-0.6-2.2
		C274.2,70.6,274.1,69.4,274.1,68.1z M278.8,55.6v12.1c0,1,0.3,1.5,1,1.5c0.7,0,1-0.5,1-1.5V55.6c0-1-0.3-1.4-1-1.4
		C279.1,54.2,278.8,54.7,278.8,55.6z"/>
	<path d="M293.7,66.9V56.5c0-1.8,0.1-3.2,0.4-4.3c0.3-1.1,0.6-2,1.1-2.5c0.5-0.6,1.1-1,1.8-1.2c0.7-0.2,1.6-0.3,2.6-0.3
		c1.3,0,2.4,0.2,3.3,0.6c0.8,0.4,1.5,1.3,1.9,2.5c0.4,1.2,0.7,3,0.7,5.3v10.5c0,2.3-0.2,4-0.7,5.3c-0.4,1.2-1.1,2-1.9,2.5
		c-0.8,0.4-1.9,0.6-3.3,0.6c-1.4,0-2.4-0.2-3.3-0.6c-0.8-0.4-1.5-1.2-1.9-2.5C293.9,71,293.7,69.2,293.7,66.9z M298.4,55.8v11.8
		c0,0.8,0.1,1.3,0.3,1.5c0.2,0.3,0.5,0.4,0.9,0.4c0.3,0,0.6,0,0.7-0.2c0.2-0.1,0.3-0.3,0.4-0.6c0.1-0.3,0.1-0.7,0.1-1.2V55.8
		c0-0.8-0.1-1.3-0.3-1.5c-0.2-0.3-0.5-0.4-0.9-0.4c-0.4,0-0.8,0.1-0.9,0.4C298.5,54.5,298.4,55,298.4,55.8z"/>
	<path d="M313.1,74.9l2.2-14.3l-1.8-12.1h4.4l1.2,10.8h0.1l1.2-10.8h4.4l-1.9,12.1l2.3,14.3h-4.5l-1.4-11.6H319l-1.5,11.6H313.1z"/>
</g>
<g>
	<path d="M0,14.7C0,14.7,15.6,11,31.4,0c0,0-8.9,27,8.5,69.9c0,0-7.7-4.5-11.2,2.8C28.8,72.7,20.8,33.5,0,14.7z"/>
	<path d="M34.9,0.3c0,0-0.4,1.8-2.1,11.1c0,0,14.8-2.5,19.4,12.1c0,0,3.8,8.9-5.2,18.2c0,0-1.8-4.8-1.2-8.9L37,51.4l21.2-0.4
		c0,0-5.8-1.3-8.1-5.3c0,0,12.9-5,13.3-21c0,0,1.7-14.6-14.6-21.8C48.7,3.1,43.4,0.4,34.9,0.3z"/>
	<path d="M42.7,77.9c0,3.1-2.8,5.7-6.2,5.7c-3.4,0-6.2-2.5-6.2-5.7c0-3.1,2.8-5.7,6.2-5.7C39.9,72.2,42.7,74.8,42.7,77.9z"/>
</g>
</svg>
