<svg xmlns="http://www.w3.org/2000/svg" viewBox="0 0 459.39 74.02"><defs><style>.cls-1{fill:#333;}.cls-2{fill:#e00e0e;}</style></defs><title>Artboard 1</title><g id="Layer_1" data-name="Layer 1"><path class="cls-1" d="M19.45,49.93V21.61H30c4.44,0,8.19,1.25,8.19,7.36a5.91,5.91,0,0,1-4.86,6.25v.14c4.16.56,5.28,3.33,5.28,7.22,0,7.22-6.25,7.5-8.75,7.5H19.45Zm6-16.66h4c1.25,0,3.05-.83,3.05-3.61A3.39,3.39,0,0,0,29,26.06H25.42Zm0,12.36h3.33c1.25,0,4,0,4-4,0-2.5-1-4-3.89-4H25.42Z"/><path class="cls-1" d="M40.42,21.61H51.11c5.41,0,7.5,3.33,7.5,8.47,0,3.19-1,8.33-7.91,8.33H46.25V49.93h-6V21.61Zm6,12.49h3.33c1.8,0,2.92-1.94,2.92-3.75,0-2.36-.69-4.3-3.33-4.3H46.39Z"/><path class="cls-2" d="M19.87,2.87a30.35,30.35,0,0,0-7.36,7.77c-10,15.27-6,37.21,9.16,49.14A34.11,34.11,0,0,0,33.89,66a27.34,27.34,0,0,1-21.66-5.69C-1.09,49.93-4,29.39,5.85,14.67A30.15,30.15,0,0,1,19.87,2.87Z"/><path class="cls-2" d="M16.4,67.56a31.86,31.86,0,0,0,10.27,2.5c18.19,1.11,35.26-13.47,37.9-32.49a34.81,34.81,0,0,0-.69-13.74,28.08,28.08,0,0,1,6,21.66C67.49,62.29,51.11,75.06,33.47,74A31.92,31.92,0,0,1,16.4,67.56Z"/><path class="cls-2" d="M74.15,37.44A30.43,30.43,0,0,0,71.1,27.31C62.91,10.92,41.8,3.57,24,10.65a33.82,33.82,0,0,0-11.52,7.5,27.33,27.33,0,0,1,15.69-16C43.89-4.07,63,3.57,71,19.39A30.12,30.12,0,0,1,74.15,37.44Z"/></g><g id="Layer_2" data-name="Layer 2"><path class="cls-1" d="M88.64,55.81V20.47h13.12c5.63,0,10.28,1.62,10.28,9.15,0,4.06-2,7-6,7.78v.1c5.24.73,6.61,4.11,6.61,9,0,9-7.78,9.35-10.92,9.35ZM96,34.91H101c1.62,0,3.87-1.08,3.87-4.5a4.23,4.23,0,0,0-4.26-4.5H96Zm0,15.47h4.11c1.57,0,5.09,0,5.09-5,0-3.13-1.17-5-4.9-5H96Z"/><path class="cls-1" d="M133.68,51.21c0,1.52.2,3.08.34,4.6h-6.41l-.29-3.28h-.1a6.85,6.85,0,0,1-6.46,3.77c-4.8,0-6.56-3.57-6.56-7.88,0-8.18,6.32-8.52,12.73-8.42V38.09c0-2.11-.29-3.62-2.79-3.62s-2.6,1.81-2.6,3.77h-6.76c0-3,.93-4.9,2.54-6s3.82-1.62,6.46-1.62c8.76,0,9.89,3.77,9.89,8.27Zm-12.73-3.08c0,1.76.29,3.92,2.55,3.92,4.06,0,3.43-5.48,3.43-8.18C123.49,44,120.95,43.72,120.95,48.12Z"/><path class="cls-1" d="M142.88,47.88a7.08,7.08,0,0,0,.34,3c.39.78,1.13,1.18,2.5,1.18a2.41,2.41,0,0,0,2.55-2.55c0-5.24-12.14-4.06-12.14-11.95,0-5.34,5.29-7,9.74-7,4.7,0,9,2.25,8.57,7.59h-6.76c0-1.71-.2-2.74-.69-3.18a2.32,2.32,0,0,0-1.76-.54c-1.52,0-2.35,1-2.35,2.64C142.88,41,155,40.83,155,48.76c0,4.31-3.53,7.54-9.25,7.54-6,0-10-1.52-9.64-8.42Z"/><path class="cls-1" d="M163.59,44.55c0,2.94.1,7.34,3.13,7.34,2.45,0,2.94-2.35,2.94-4.41h7A8.79,8.79,0,0,1,174,53.9c-1.62,1.52-4.06,2.4-7.29,2.4-8.91,0-10.08-5.43-10.08-13.17,0-6.76,1-12.53,10.08-12.53,9.3,0,10.33,6,10.08,14Zm6.32-3.87c0-2.4.1-5.83-3.18-5.83s-3.13,3.72-3.13,5.83Z"/><path class="cls-1" d="M179.74,20.47h6.9v13h.1a6,6,0,0,1,5.63-2.84c7,0,6.76,7.69,6.76,12.68s.24,13-6.9,13c-2.64,0-4.55-.83-5.83-3.23h-.1v2.74h-6.56Zm12.63,22.76c0-4.94,0-8.37-2.94-8.37s-2.79,3.43-2.79,8.37c0,6.22.44,8.81,2.79,8.81S192.37,49.45,192.37,43.23Z"/><path class="cls-1" d="M221,51.21c0,1.52.2,3.08.34,4.6h-6.41l-.29-3.28h-.1a6.85,6.85,0,0,1-6.46,3.77c-4.8,0-6.56-3.57-6.56-7.88,0-8.18,6.32-8.52,12.73-8.42V38.09c0-2.11-.29-3.62-2.79-3.62s-2.6,1.81-2.6,3.77h-6.76c0-3,.93-4.9,2.55-6s3.82-1.62,6.46-1.62c8.76,0,9.89,3.77,9.89,8.27Zm-12.73-3.08c0,1.76.29,3.92,2.55,3.92,4.06,0,3.43-5.48,3.43-8.18C210.83,44,208.28,43.72,208.28,48.12Z"/><path class="cls-1" d="M232.27,20.47V55.81h-6.9V20.47Z"/><path class="cls-1" d="M243.92,20.47V55.81H237V20.47Z"/><path class="cls-1" d="M257.39,20.47H270.7c6.76,0,9.4,4.11,9.4,10.57,0,4-1.17,10.38-9.84,10.38h-5.48V55.81h-7.39ZM264.78,36h4.11c2.2,0,3.72-2.4,3.72-4.75,0-2.89-.78-5.34-4.11-5.34h-3.72Z"/><path class="cls-1" d="M288.32,31.09v3.18h.1c1.27-2.84,3.62-3.67,6.41-3.67v6.17c-6.07-.39-6.17,3.13-6.17,5.58V55.81h-6.9V31.09Z"/><path class="cls-1" d="M295.52,43.13c0-6.76,1-12.53,10.08-12.53s10.08,5.78,10.08,12.53c0,7.74-1.17,13.17-10.08,13.17S295.52,50.87,295.52,43.13Zm13.27-.39c0-5.14-.24-7.73-3.18-7.73s-3.18,2.59-3.18,7.73c0,7.54.64,9.15,3.18,9.15S308.79,50.28,308.79,42.74Z"/><path class="cls-1" d="M324.06,47.88a7.08,7.08,0,0,0,.34,3c.39.78,1.13,1.18,2.5,1.18a2.41,2.41,0,0,0,2.55-2.55c0-5.24-12.14-4.06-12.14-11.95,0-5.34,5.29-7,9.74-7,4.7,0,9,2.25,8.57,7.59h-6.76c0-1.71-.2-2.74-.69-3.18a2.32,2.32,0,0,0-1.76-.54c-1.52,0-2.35,1-2.35,2.64,0,3.92,12.14,3.72,12.14,11.65,0,4.31-3.52,7.54-9.25,7.54-6,0-10-1.52-9.64-8.42Z"/><path class="cls-1" d="M345,31.09v2.74h.1c1.27-2.4,3.18-3.23,5.83-3.23,7.15,0,6.9,7.93,6.9,13S358,56.3,351,56.3a6,6,0,0,1-5.63-2.84h-.1v13h-6.9V31.09ZM351,43.23c0-4.94,0-8.37-2.94-8.37s-2.79,3.43-2.79,8.37c0,6.22.44,8.81,2.79,8.81S351,49.45,351,43.23Z"/><path class="cls-1" d="M367.29,44.55c0,2.94.1,7.34,3.13,7.34,2.45,0,2.94-2.35,2.94-4.41h7a8.79,8.79,0,0,1-2.64,6.41c-1.62,1.52-4.06,2.4-7.3,2.4-8.91,0-10.08-5.43-10.08-13.17,0-6.76,1-12.53,10.08-12.53,9.3,0,10.33,6,10.09,14Zm6.32-3.87c0-2.4.1-5.83-3.18-5.83s-3.13,3.72-3.13,5.83Z"/><path class="cls-1" d="M396,39.9c0-3.67-.93-4.9-3.08-4.9-2.94,0-3.18,2.59-3.18,7.73,0,7.54.64,9.15,3.18,9.15,2.15,0,3.18-2,3.18-5.19H403c0,6.71-3.62,9.6-10.08,9.6-8.91,0-10.08-5.43-10.08-13.17,0-6.76,1-12.53,10.08-12.53,6.36,0,10,2.84,10,9.3Z"/><path class="cls-1" d="M403.17,31.09H406V27.17l6.9-3.08v7h3.57v4.26h-3.57V48.57c0,1.86,0,3.08,2.2,3.08a4.77,4.77,0,0,0,1.22-.1v4.26a28.29,28.29,0,0,1-3.57.25c-6,0-6.76-4-6.76-5.48V35.35h-2.79Z"/><path class="cls-1" d="M431.66,53.31h-.1c-1.37,2.2-3.23,3-5.83,3-3.28,0-6.17-2-6.17-5.39V31.09h6.9V48.22c0,2.2.39,3.82,2.59,3.82s2.59-1.62,2.59-3.82V31.09h6.9V50.91c0,1.62.1,3.28.24,4.9h-7.15Z"/><path class="cls-1" d="M447,47.88a7.08,7.08,0,0,0,.34,3c.39.78,1.13,1.18,2.5,1.18a2.41,2.41,0,0,0,2.55-2.55c0-5.24-12.14-4.06-12.14-11.95,0-5.34,5.29-7,9.74-7,4.7,0,9,2.25,8.57,7.59h-6.76c0-1.71-.2-2.74-.69-3.18a2.32,2.32,0,0,0-1.76-.54c-1.52,0-2.35,1-2.35,2.64,0,3.92,12.14,3.72,12.14,11.65,0,4.31-3.53,7.54-9.25,7.54-6,0-10-1.52-9.65-8.42Z"/></g></svg>