<svg version="1.1" id="Layer_1" xmlns="http://www.w3.org/2000/svg" x="0" y="0" viewBox="0 0 391 72" xml:space="preserve"><style>.st0{fill:#59595b}</style><path class="st0" d="M112.7 1h15.9c3.4 0 6.2.4 8.2 1.3 2.1.8 3.5 2 4.5 3.6.9 1.5 1.4 3.3 1.4 5.4 0 1.9-.4 3.5-1.3 5-.8 1.4-2.2 2.6-4.1 3.6 2.4 1 4 2.3 5 3.9s1.5 3.5 1.5 5.6c0 3.5-1.2 6.3-3.6 8.5-2.4 2.1-6.2 3.2-11.4 3.2h-16.2V1h.1zm15.2 16.1c2.2 0 3.8-.4 4.8-1.2 1-.8 1.5-2 1.5-3.6s-.5-2.8-1.5-3.6c-1-.7-2.8-1.1-5.2-1.1h-6.6v9.5h7zm.2 17.3c2.7 0 4.6-.5 5.6-1.4 1-1 1.5-2.3 1.5-4.1 0-1.9-.5-3.3-1.6-4.2-1.1-.9-2.9-1.4-5.4-1.4h-7.4v11h7.3v.1zM158.7 1h10.4l14.2 40h-9.1l-3-8.8h-15l-3 8.8h-8.8l14.3-40zm10.4 24l-5.4-16.3-5.3 16.3h10.7zM213.6 38.6c-2.7 2.3-6.8 3.4-12.1 3.4-5.1 0-9.1-1.1-12.1-3.2-3-2.2-4.6-5.5-5-10h8.7c.3 2.2 1.2 3.8 2.6 4.8 1.4 1 3.4 1.5 6.1 1.5 2.6 0 4.4-.5 5.4-1.5s1.5-2.2 1.5-3.7c0-1.2-.4-2.2-1.1-3.1-.7-.9-2.2-1.5-4.4-1.8l-5.3-1c-4.3-.8-7.5-2.1-9.6-3.9-2.1-1.8-3.2-4.5-3.2-8 0-2.6.7-4.8 2-6.6 1.3-1.8 3.2-3.1 5.6-4.1C195.1.5 197.9 0 201 0c3.5 0 6.3.5 8.5 1.5s3.9 2.3 5.1 4 1.9 3.7 2.2 5.9l-8.5 1.1c-.5-1.9-1.3-3.2-2.3-4.1-1.1-.9-2.8-1.3-5.2-1.3-2.5 0-4.4.4-5.4 1.3-1.1.9-1.6 2-1.6 3.3s.4 2.4 1.2 3.1c.8.7 2.3 1.3 4.3 1.7l5.5 1.1c4.4.9 7.7 2.2 9.7 4.1 2 1.9 3 4.5 3 8 .1 3.5-1.2 6.6-3.9 8.9zM222.6 1h27.7v7.1h-19V17h17.9v7.1h-17.9v9.7h20.2l-.9 7.1h-28V1zM256.5 1h15.9c3.4 0 6.2.4 8.2 1.3 2.1.8 3.5 2 4.5 3.6.9 1.5 1.4 3.3 1.4 5.4 0 1.9-.4 3.5-1.3 5-.8 1.4-2.2 2.6-4.1 3.6 2.4 1 4 2.3 5 3.9s1.5 3.5 1.5 5.6c0 3.5-1.2 6.3-3.6 8.5-2.4 2.1-6.2 3.2-11.4 3.2h-16.1V1zm15.2 16.1c2.2 0 3.8-.4 4.8-1.2 1-.8 1.5-2 1.5-3.6s-.5-2.8-1.5-3.6c-1-.7-2.8-1.1-5.2-1.1h-6.6v9.5h7zm.2 17.3c2.7 0 4.6-.5 5.6-1.4 1-1 1.5-2.3 1.5-4.1 0-1.9-.5-3.3-1.6-4.2s-2.9-1.4-5.4-1.4h-7.4v11h7.3v.1zM303.1 1h10.4l14.2 40h-9.1l-3-8.8h-15l-3 8.8h-8.8l14.3-40zm10.3 24L308 8.7 302.7 25h10.7zM331.3 1h8.8v32.3h18.8l-1 7.7h-26.7V1h.1zM363.4 1h8.8v32.3H391l-1 7.7h-26.7V1h.1z"/><g><path class="st0" d="M112.7 47.6h12.8c7.1 0 10.6 2.4 10.6 7.1 0 3.2-1.8 5.4-5.4 6.4l6.9 10.3h-4.4l-6.3-9.6h-10.4v9.6h-3.7V47.6h-.1zm12.4 11.3c4.7 0 7-1.4 7-4.2 0-1.5-.5-2.5-1.6-3.2-1.1-.7-2.8-1-5.3-1h-8.8v8.4h8.7zM141.9 47.6h21.8v2.9h-18v7.2h17.1v2.9h-17.1v7.9h18.8l-.7 2.9h-21.9V47.6zM169.6 47.6h20.7v2.9h-16.9V58h16.1v2.9h-16.1v10.5h-3.8V47.6zM194.9 47.6h21.8v2.9h-18v7.2h17.1v2.9h-17.1v7.9h18.8l-.7 2.9h-21.9V47.6zM222.3 47.6h12.8c7.1 0 10.6 2.4 10.6 7.1 0 3.2-1.8 5.4-5.4 6.4l6.9 10.3h-4.4l-6.3-9.6h-10.4v9.6h-3.7V47.6h-.1zm12.4 11.3c4.7 0 7-1.4 7-4.2 0-1.5-.5-2.5-1.6-3.2-1.1-.7-2.8-1-5.3-1H226v8.4h8.7zM251.1 47.6h21.8v2.9h-18v7.2H272v2.9h-17.1v7.9h18.8l-.7 2.9h-21.9V47.6zM278.4 47.6h3.7l18.2 19.1V47.6h3.7v23.8h-3.7l-18.2-19.1v19.1h-3.7V47.6zM335.9 54.8l-3.7.5c-.8-1.9-1.9-3.3-3.4-4.1-1.5-.8-3.5-1.3-6.2-1.3-2.2 0-4.1.4-5.7 1.2-1.6.8-2.8 1.9-3.7 3.3-.9 1.4-1.3 3.1-1.3 5.1s.4 3.7 1.3 5.1c.9 1.4 2.1 2.5 3.7 3.3 1.6.8 3.5 1.1 5.8 1.1 2.8 0 5-.4 6.6-1.3 1.6-.9 2.6-2.3 3.1-4.2h3.9c-.5 2.7-2 4.8-4.3 6.3-2.3 1.4-5.4 2.2-9.3 2.2-3 0-5.6-.5-7.8-1.5s-3.9-2.5-5.1-4.3c-1.2-1.9-1.8-4.1-1.8-6.6s.6-4.7 1.8-6.6c1.2-1.9 2.9-3.3 5.1-4.4 2.2-1 4.8-1.6 7.7-1.6 7.2 0 11.7 2.6 13.3 7.8zM340.6 47.6h21.8v2.9h-18v7.2h17.1v2.9h-17.1v7.9h18.8l-.7 2.9h-21.9V47.6z"/></g><g><path d="M102.2 0v72s-14.9-10.1-37-10.1C47.4 61.9 10 64.9 0 16c0 0 6.8 5.9 20.7 5.9C43.2 22 50.5 0 102.2 0z" fill="#fff"/><path d="M74.3 9.6c1-.1 2.8-.2 4.3-.3-1 1.4-1.9 2.8-2.6 4.3l-4.4.4-1.4-3.8c.9-1.2 1.9-2.4 3-3.5.4 1 .8 2.1 1.1 2.9zm-.6 45.5l4.6-.4.9-4.8c-1.2-1.6-2.3-3.3-3.2-5.1-.3 1.5-.8 4.6-1.1 6.2-1.1.1-3 .3-4.5.4.9 1.3 2.1 2.6 3.3 3.7zm-.4-34.7c.5-1.7 1-3.3 1.7-4.9-1.6.6-3.9 1.4-5.1 1.8-.6-.8-1.5-2.1-2.4-3.3-.8 1.3-1.4 2.7-2 4.2l2.8 4 5-1.8zm-.7 27.4l2.4-5c-.8-1.8-1.4-3.6-1.9-5.5-.6 1.2-2.1 4.5-2.8 6-1.2-.2-3.3-.6-4.9-.8.6 1.6 1.3 3 2 4.5l5.2.8zm-9.3-20.4l4.2 3.5 4.6-3.2c.1-1.8.3-3.7.7-5.4-1.3.9-3.8 2.6-5.1 3.5-.9-.7-2.4-2-3.7-3-.3 1.5-.5 3.1-.7 4.6zm38.9-2.3V0c-9.7 0-17.7.8-24.7 2 11.6 2.7 21.1 11.4 24.7 23.1zM72.7 35.4c-.1-.3-.1-.6-.2-.8-.3-1.6-.4-3.2-.4-4.8-.9 1-3.2 3.8-4.3 5.1-1.1-.5-3.1-1.4-4.6-2.1l.3 3.3.3 1.5 5.1 2.3 3.8-4.5zm-36.3 4.9c-1.5-9.1.9-18 5.9-25-7.1 3.8-13.4 6.7-21.6 6.7C6.7 22 0 16.1 0 16.1c7.5 36.7 30.5 44.1 49 45.6-6.5-5.1-11.2-12.6-12.6-21.4zm16.3 5.3c.4-1.7.6-3.5.6-5.2l-3-3.2-4.5 2.3c0 1.6-.2 3.2-.4 4.8 1.4-.7 3.1-1.6 4-2.1.8.9 2.2 2.3 3.3 3.4zm28 6.1c.1 1.7.3 4.1.5 5.4-.8.3-2.2.8-3.5 1.3 1.4 1 2.9 1.9 4.5 2.6l3.2-1.2-.3-4c-1.6-1.2-3-2.6-4.4-4.1zm5 13.2c10.3 3 16.5 7.1 16.5 7.1V44.9c-2.6 8.5-8.6 15.7-16.5 20zM49.5 54.6c.8-1.5 1.5-3.1 2-4.8l-1.9-3.6-4.7 1.1c-.4 1.5-.8 3-1.4 4.5 1.4-.3 3.1-.7 4-.9.5.8 1.3 2.3 2 3.7zm-.3-21.2c1 .6 2.7 1.7 4.1 2.5v-.2c-.2-1.7-.5-3.4-.9-5.1l-3.7-2.3-3.7 3.4c.3 1.5.6 3 .8 4.5v.3c1.1-1 2.5-2.3 3.4-3.1zm-5.1-4.6c.8-1.3 1.9-2.9 2.4-3.8 1 .3 2.9.9 4.4 1.3-.7-1.7-1.5-3.4-2.5-5l-3.7-1.1-2.6 4c.9 1.5 1.5 3 2 4.6z" fill="#cf2036"/></g></svg>