<?xml version="1.0" encoding="utf-8"?>
<!-- Generator: Adobe Illustrator 18.1.1, SVG Export Plug-In . SVG Version: 6.00 Build 0)  -->
<svg version="1.1" id="Layer_1" xmlns="http://www.w3.org/2000/svg" xmlns:xlink="http://www.w3.org/1999/xlink" x="0px" y="0px"
	 viewBox="0 0 300 300" enable-background="new 0 0 300 300" xml:space="preserve">
<g>
	<path fill="#C52D2F" d="M150,19.9c-71.1,0-128.8,57.7-128.8,128.8c0,71.1,57.7,128.8,128.8,128.8c71.1,0,128.8-57.7,128.8-128.8
		C278.8,77.6,221.1,19.9,150,19.9z"/>
	<g>
		<path fill="#FFFFFF" d="M116.8,157.2h-5.2v36.6h0c1.7,2.1,2.8,4.7,2.8,7.6c0,3.6-1.6,6.8-4.2,9l-3.2-3.2c1.8-1.3,2.9-3.4,2.9-5.8
			c0-4-3.3-7.3-7.3-7.3c-4,0-7.3,3.3-7.3,7.3c0,2.4,1.1,4.5,2.9,5.8l-3.2,3.2c-2.5-2.2-4.2-5.4-4.2-9c0-2.9,1.1-5.6,2.8-7.6v-57
			c0.1-2.2,1.9-4,4.1-4l104.5,0c2.2,0,4,1.8,4.1,4v57c1.8,2.1,2.8,4.7,2.8,7.6c0,3.6-1.6,6.8-4.2,9l-3.2-3.2
			c1.7-1.3,2.9-3.4,2.9-5.8c0-4-3.3-7.3-7.3-7.3c-4,0-7.3,3.3-7.3,7.3c0,2.4,1.1,4.5,2.9,5.8l-3.2,3.2c-2.6-2.2-4.2-5.4-4.2-9
			c0-2.9,1.1-5.6,2.8-7.6h0v-36.6h-5.2v77.2l3.5,2v6.3h-35v-6.3l3.5-2h0V211h-10.4v23.4l3.5,2v6.3l-34.9,0.1v-6.3l3.4-2L116.8,157.2
			z"/>
		<path fill="#FFFFFF" d="M150,73.6c7.3,0,13.8,2.6,17.9,6.5l3.2-4.6c-5.1-4.5-12.6-7.4-21.1-7.4l0,0c-8.5,0-16.1,2.9-21.1,7.4
			l3.2,4.6C136.1,76.2,142.7,73.6,150,73.6"/>
		<g>
			<path fill="#FFFFFF" d="M150.2,61.9c7.9,0,15.3,2.3,20.8,6.5c1.1,0.8,2.1,1.7,3,2.7l3.2-4.6c-6.2-6.1-16-10.1-27-10.1l0,0
				c-11.3,0-21.3,4.1-27.5,10.5l3.2,4.6c1-1.1,2.1-2.2,3.4-3.2C134.9,64.2,142.3,61.9,150.2,61.9"/>
		</g>
		<g>
			<path fill="#FFFFFF" d="M150,50.7c12.6,0,23.7,4.6,30.3,11.6l3.2-4.5c-7.7-7.6-19.9-12.5-33.5-12.5l0,0
				c-13.7,0-25.8,4.9-33.5,12.6l3.2,4.5C126.3,55.3,137.4,50.7,150,50.7"/>
		</g>
		<g>
			<path fill="#FFFFFF" d="M139.9,104.6c0,1.9-1.5,3.5-3.5,3.5c-1.9,0-3.5-1.6-3.5-3.5c0-1.9,1.6-3.5,3.5-3.5
				C138.4,101.1,139.9,102.7,139.9,104.6z"/>
			<path fill="#FFFFFF" d="M176.6,86h-53.1c-2.2,0-4,1.8-4,4v34.6c0,2.2,1.8,4,4,4h53.1c2.2,0,4-1.8,4-4V89.9
				C180.5,87.7,178.7,86,176.6,86z M136.5,111.4c-3.7,0-6.8-3-6.8-6.8c0-3.7,3-6.8,6.8-6.8c3.7,0,6.8,3,6.8,6.8
				C143.2,108.3,140.2,111.4,136.5,111.4z M163.6,111.4c-3.7,0-6.8-3-6.8-6.8c0-3.7,3-6.8,6.8-6.8c3.7,0,6.8,3,6.8,6.8
				C170.4,108.3,167.4,111.4,163.6,111.4z"/>
			<path fill="#FFFFFF" d="M167.1,104.6c0,1.9-1.6,3.5-3.5,3.5c-1.9,0-3.5-1.6-3.5-3.5c0-1.9,1.5-3.5,3.5-3.5
				C165.5,101.1,167.1,102.7,167.1,104.6z"/>
		</g>
	</g>
</g>
</svg>
